<svg width="15" height="18" viewBox="0 0 15 18" fill="none" xmlns="http://www.w3.org/2000/svg">
<path d="M13.5 0H1.5C0.675 0 0 0.675 0 1.5V16.5C0 17.325 0.675 18 1.5 18H13.5C14.325 18 15 17.325 15 16.5V1.5C15 0.675 14.325 0 13.5 0ZM4.5 15C4.5 15.4125 4.1625 15.75 3.75 15.75H2.25C1.8375 15.75 1.5 15.4125 1.5 15V14.625C1.5 14.2125 1.8375 13.875 2.25 13.875H3.75C4.1625 13.875 4.5 14.2125 4.5 14.625V15ZM4.5 12C4.5 12.4125 4.1625 12.75 3.75 12.75H2.25C1.8375 12.75 1.5 12.4125 1.5 12V11.625C1.5 11.2125 1.8375 10.875 2.25 10.875H3.75C4.1625 10.875 4.5 11.2125 4.5 11.625V12ZM4.5 9C4.5 9.4125 4.1625 9.75 3.75 9.75H2.25C1.8375 9.75 1.5 9.4125 1.5 9V8.625C1.5 8.2125 1.8375 7.875 2.25 7.875H3.75C4.1625 7.875 4.5 8.2125 4.5 8.625V9ZM9 15C9 15.4125 8.6625 15.75 8.25 15.75H6.75C6.3375 15.75 6 15.4125 6 15V14.625C6 14.2125 6.3375 13.875 6.75 13.875H8.25C8.6625 13.875 9 14.2125 9 14.625V15ZM9 12C9 12.4125 8.6625 12.75 8.25 12.75H6.75C6.3375 12.75 6 12.4125 6 12V11.625C6 11.2125 6.3375 10.875 6.75 10.875H8.25C8.6625 10.875 9 11.2125 9 11.625V12ZM9 9C9 9.4125 8.6625 9.75 8.25 9.75H6.75C6.3375 9.75 6 9.4125 6 9V8.625C6 8.2125 6.3375 7.875 6.75 7.875H8.25C8.6625 7.875 9 8.2125 9 8.625V9ZM13.5 15C13.5 15.4125 13.1625 15.75 12.75 15.75H11.25C10.8375 15.75 10.5 15.4125 10.5 15V14.625C10.5 14.2125 10.8375 13.875 11.25 13.875H12.75C13.1625 13.875 13.5 14.2125 13.5 14.625V15ZM13.5 12C13.5 12.4125 13.1625 12.75 12.75 12.75H11.25C10.8375 12.75 10.5 12.4125 10.5 12V11.625C10.5 11.2125 10.8375 10.875 11.25 10.875H12.75C13.1625 10.875 13.5 11.2125 13.5 11.625V12ZM13.5 9C13.5 9.4125 13.1625 9.75 12.75 9.75H11.25C10.8375 9.75 10.5 9.4125 10.5 9V8.625C10.5 8.2125 10.8375 7.875 11.25 7.875H12.75C13.1625 7.875 13.5 8.2125 13.5 8.625V9ZM13.5 5.625C13.5 6.0375 13.1625 6.375 12.75 6.375H2.25C1.8375 6.375 1.5 6.0375 1.5 5.625V2.625C1.5 2.2125 1.8375 1.875 2.25 1.875H12.75C13.1625 1.875 13.5 2.2125 13.5 2.625V5.625Z" fill="url(#paint0_linear_2220_12194)"/>
<defs>
<linearGradient id="paint0_linear_2220_12194" x1="0.387097" y1="18" x2="13.5473" y2="16.3848" gradientUnits="userSpaceOnUse">
<stop stop-color="#313860"/>
<stop offset="1" stop-color="#151928"/>
</linearGradient>
</defs>
</svg>
