<svg width="17" height="19" viewBox="0 0 17 19" fill="none" xmlns="http://www.w3.org/2000/svg">
<path d="M8.02222 11.4C8.57375 11.4 9.04606 11.2138 9.43915 10.8414C9.83157 10.4696 10.0278 10.0225 10.0278 9.5C10.0278 8.9775 9.83157 8.53005 9.43915 8.15765C9.04606 7.78588 8.57375 7.6 8.02222 7.6C7.47069 7.6 6.99872 7.78588 6.6063 8.15765C6.21321 8.53005 6.01667 8.9775 6.01667 9.5C6.01667 10.0225 6.21321 10.4696 6.6063 10.8414C6.99872 11.2138 7.47069 11.4 8.02222 11.4ZM4.01111 15.2H12.0333V14.6537C12.0333 14.2737 11.9247 13.9254 11.7074 13.6088C11.4902 13.2921 11.1893 13.0546 10.8049 12.8962C10.3704 12.7221 9.92349 12.5875 9.46422 12.4925C9.00428 12.3975 8.52361 12.35 8.02222 12.35C7.52083 12.35 7.04017 12.3975 6.58023 12.4925C6.12096 12.5875 5.67405 12.7221 5.23951 12.8962C4.85512 13.0546 4.55428 13.2921 4.33701 13.6088C4.11975 13.9254 4.01111 14.2737 4.01111 14.6537V15.2ZM14.0389 19H2.00556C1.45403 19 0.982054 18.8141 0.589633 18.4424C0.196544 18.07 0 17.6225 0 17.1V1.9C0 1.3775 0.196544 0.93005 0.589633 0.55765C0.982054 0.185883 1.45403 0 2.00556 0H9.20049C9.46789 0 9.72293 0.0475001 9.96561 0.1425C10.2076 0.2375 10.4205 0.372083 10.6044 0.54625L15.4678 5.15375C15.6517 5.32792 15.7938 5.52963 15.894 5.7589C15.9943 5.9888 16.0444 6.23042 16.0444 6.48375V17.1C16.0444 17.6225 15.8482 18.07 15.4558 18.4424C15.0627 18.8141 14.5904 19 14.0389 19Z" fill="url(#paint0_linear_2220_12341)"/>
<defs>
<linearGradient id="paint0_linear_2220_12341" x1="0.41405" y1="19" x2="14.485" y2="17.25" gradientUnits="userSpaceOnUse">
<stop stop-color="#313860"/>
<stop offset="1" stop-color="#151928"/>
</linearGradient>
</defs>
</svg>
