<svg width="19" height="20" viewBox="0 0 19 20" fill="none" xmlns="http://www.w3.org/2000/svg">
<path d="M1.58301 15.5416C1.58301 16.8874 2.61217 17.9166 3.95801 17.9166H15.0413C16.3872 17.9166 17.4163 16.8874 17.4163 15.5416V9.20825H1.58301V15.5416ZM15.0413 3.66659H13.458V2.87492C13.458 2.39992 13.1413 2.08325 12.6663 2.08325C12.1913 2.08325 11.8747 2.39992 11.8747 2.87492V3.66659H7.12467V2.87492C7.12467 2.39992 6.80801 2.08325 6.33301 2.08325C5.85801 2.08325 5.54134 2.39992 5.54134 2.87492V3.66659H3.95801C2.61217 3.66659 1.58301 4.69575 1.58301 6.04158V7.62492H17.4163V6.04158C17.4163 4.69575 16.3872 3.66659 15.0413 3.66659Z" fill="#2D3748"/>
</svg>
