<svg width="19" height="20" viewBox="0 0 19 20" fill="none" xmlns="http://www.w3.org/2000/svg">
<path d="M7.96387 8.48828C10.1698 8.48828 11.958 6.70004 11.958 4.49414C11.958 2.28824 10.1698 0.5 7.96387 0.5C5.75796 0.5 3.96973 2.28824 3.96973 4.49414C3.96973 6.70004 5.75796 8.48828 7.96387 8.48828Z" fill="url(#paint0_linear_2220_12359)"/>
<path d="M10.5234 15.7903H14.8515V16.6559H10.5234V15.7903Z" fill="url(#paint1_linear_2220_12359)"/>
<path d="M6.81364 17.0268V18.8816C6.81364 19.0456 6.87878 19.2029 6.99473 19.3188C7.11068 19.4348 7.26795 19.4999 7.43193 19.4999H17.9428C18.1068 19.4999 18.2641 19.4348 18.38 19.3188C18.496 19.2029 18.5611 19.0456 18.5611 18.8816V12.6988C18.5611 12.5348 18.496 12.3775 18.38 12.2616C18.2641 12.1456 18.1068 12.0805 17.9428 12.0805H13.6148V11.1716C13.6148 11.0076 13.5497 10.8503 13.4337 10.7344C13.3178 10.6184 13.1605 10.5533 12.9965 10.5533C12.8325 10.5533 12.6753 10.6184 12.5593 10.7344C12.4434 10.8503 12.3782 11.0076 12.3782 11.1716V12.0805H11.1417V9.867C10.091 9.6954 9.02824 9.60856 7.96366 9.60732C5.61589 9.59734 3.29444 10.1017 1.16249 11.085C0.8116 11.2506 0.515578 11.5134 0.309546 11.8422C0.103513 12.1709 -0.00388031 12.5519 0.000107136 12.9399V17.0268H6.81364ZM17.3245 18.2634H8.05022V13.3171H12.3782V13.5767C12.3782 13.7407 12.4434 13.898 12.5593 14.0139C12.6753 14.1299 12.8325 14.195 12.9965 14.195C13.1605 14.195 13.3178 14.1299 13.4337 14.0139C13.5497 13.898 13.6148 13.7407 13.6148 13.5767V13.3171H17.3245V18.2634Z" fill="url(#paint2_linear_2220_12359)"/>
<defs>
<linearGradient id="paint0_linear_2220_12359" x1="4.17588" y1="8.48828" x2="11.1389" y2="7.46275" gradientUnits="userSpaceOnUse">
<stop stop-color="#313860"/>
<stop offset="1" stop-color="#151928"/>
</linearGradient>
<linearGradient id="paint1_linear_2220_12359" x1="10.6351" y1="16.6559" x2="13.1342" y2="14.8155" gradientUnits="userSpaceOnUse">
<stop stop-color="#313860"/>
<stop offset="1" stop-color="#151928"/>
</linearGradient>
<linearGradient id="paint2_linear_2220_12359" x1="0.478997" y1="19.4999" x2="15.8362" y2="15.2562" gradientUnits="userSpaceOnUse">
<stop stop-color="#313860"/>
<stop offset="1" stop-color="#151928"/>
</linearGradient>
</defs>
</svg>
