<svg width="16" height="17" viewBox="0 0 16 17" fill="none" xmlns="http://www.w3.org/2000/svg">
<rect width="16" height="17" fill="#1E1E1E"/>
<g id="Dashboard" clip-path="url(#clip0_71_399)">
<rect width="1604" height="1080" transform="translate(-1118 -1043)" fill="#F8F9FA"/>
<g id="footer">
<g id="Frame 30">
<g id="Frame">
<path id="Vector" d="M7.99967 1.8335C7.1242 1.8335 6.25729 2.00593 5.44845 2.34097C4.63961 2.676 3.90469 3.16706 3.28563 3.78612C2.03539 5.03636 1.33301 6.73205 1.33301 8.50016C1.33301 11.4468 3.24634 13.9468 5.89301 14.8335C6.22634 14.8868 6.33301 14.6802 6.33301 14.5002V13.3735C4.48634 13.7735 4.09301 12.4802 4.09301 12.4802C3.78634 11.7068 3.35301 11.5002 3.35301 11.5002C2.74634 11.0868 3.39967 11.1002 3.39967 11.1002C4.06634 11.1468 4.41967 11.7868 4.41967 11.7868C4.99967 12.8002 5.97967 12.5002 6.35967 12.3402C6.41967 11.9068 6.59301 11.6135 6.77967 11.4468C5.29967 11.2802 3.74634 10.7068 3.74634 8.16683C3.74634 7.42683 3.99967 6.8335 4.43301 6.36016C4.36634 6.1935 4.13301 5.50016 4.49967 4.60016C4.49967 4.60016 5.05967 4.42016 6.33301 5.28016C6.85967 5.1335 7.43301 5.06016 7.99967 5.06016C8.56634 5.06016 9.13967 5.1335 9.66634 5.28016C10.9397 4.42016 11.4997 4.60016 11.4997 4.60016C11.8663 5.50016 11.633 6.1935 11.5663 6.36016C11.9997 6.8335 12.253 7.42683 12.253 8.16683C12.253 10.7135 10.693 11.2735 9.20634 11.4402C9.44634 11.6468 9.66634 12.0535 9.66634 12.6735V14.5002C9.66634 14.6802 9.77301 14.8935 10.113 14.8335C12.7597 13.9402 14.6663 11.4468 14.6663 8.50016C14.6663 7.62468 14.4939 6.75778 14.1589 5.94894C13.8238 5.1401 13.3328 4.40517 12.7137 3.78612C12.0947 3.16706 11.3597 2.676 10.5509 2.34097C9.74206 2.00593 8.87515 1.8335 7.99967 1.8335Z" fill="#444444"/>
</g>
</g>
</g>
</g>
<defs>
<clipPath id="clip0_71_399">
<rect width="1604" height="1080" fill="white" transform="translate(-1118 -1043)"/>
</clipPath>
</defs>
</svg>
