<svg width="19" height="19" viewBox="0 0 19 19" fill="none" xmlns="http://www.w3.org/2000/svg">
<path d="M16.6271 2.37598H16.6258L18.7476 2.80009C18.8616 2.82287 18.9552 2.90643 18.9882 3.0191C19.0048 3.07383 19.0063 3.13205 18.9924 3.18755C18.9786 3.24306 18.95 3.29378 18.9097 3.33433L17.1715 5.07379C16.9635 5.28137 16.6817 5.39793 16.3878 5.39788H14.9472L11.3264 9.01985C11.3955 9.28067 11.4082 9.55322 11.3637 9.81933C11.3192 10.0854 11.2185 10.339 11.0683 10.5632C10.9181 10.7873 10.7218 10.9769 10.4926 11.1192C10.2634 11.2616 10.0065 11.3534 9.73902 11.3887C9.47152 11.424 9.19958 11.4018 8.94131 11.3238C8.68304 11.2457 8.44437 11.1135 8.2412 10.936C8.03803 10.7584 7.87503 10.5396 7.76305 10.2941C7.65107 10.0487 7.59269 9.78213 7.5918 9.51232C7.59199 9.22101 7.65915 8.93364 7.78811 8.67242C7.91706 8.4112 8.10434 8.18313 8.33548 8.00582C8.56663 7.82852 8.83544 7.70673 9.12115 7.64987C9.40686 7.59302 9.70182 7.60261 9.98324 7.67791L13.6052 4.05467V2.61525C13.6052 2.32155 13.7217 2.03923 13.9293 1.83161L15.6688 0.092152C15.7093 0.0518037 15.76 0.0231982 15.8155 0.00937735C15.871 -0.00444354 15.9293 -0.00296316 15.984 0.0136611C16.0967 0.0465766 16.1802 0.140259 16.203 0.254198L16.6271 2.37598Z" fill="url(#paint0_linear_2220_12346)"/>
<path d="M1.89488 9.51245C1.89619 10.5986 2.13041 11.6719 2.58176 12.6598C3.03312 13.6477 3.6911 14.5274 4.51132 15.2394C5.33155 15.9515 6.29493 16.4793 7.3365 16.7873C8.37806 17.0954 9.47358 17.1765 10.5491 17.0251C11.6247 16.8738 12.6553 16.4935 13.5714 15.91C14.4876 15.3265 15.2679 14.5533 15.8598 13.6426C16.4516 12.7319 16.8413 11.7048 17.0025 10.6307C17.1637 9.55654 17.0927 8.46033 16.7942 7.41598C16.7523 7.29397 16.7357 7.1647 16.7453 7.03606C16.755 6.90741 16.7907 6.78207 16.8503 6.66768C16.91 6.55328 16.9922 6.45221 17.0922 6.37063C17.1921 6.28905 17.3076 6.22866 17.4316 6.19314C17.5557 6.15762 17.6856 6.14771 17.8136 6.16401C17.9416 6.18032 18.0649 6.2225 18.176 6.28798C18.2872 6.35347 18.3838 6.44089 18.4601 6.54493C18.5364 6.64896 18.5907 6.76743 18.6198 6.89313C19.1977 8.91557 19.0879 11.0727 18.3076 13.026C17.5273 14.9793 16.1207 16.6183 14.3084 17.6859C12.496 18.7535 10.3806 19.1892 8.29385 18.9248C6.20714 18.6603 4.26726 17.7106 2.77854 16.2247C1.29144 14.7363 0.340734 12.7963 0.0756739 10.7091C-0.189387 8.62188 0.246213 6.50576 1.31408 4.69295C2.38195 2.88013 4.02161 1.47329 5.97564 0.69329C7.92967 -0.0867086 10.0874 -0.195691 12.1101 0.383453C12.3509 0.453857 12.5541 0.616733 12.6752 0.836488C12.7964 1.05624 12.8256 1.31501 12.7565 1.55623C12.6874 1.79745 12.5256 2.00152 12.3065 2.12384C12.0874 2.24615 11.8288 2.27677 11.5872 2.209C10.4562 1.88448 9.26522 1.82713 8.10822 2.04147C6.95122 2.2558 5.85982 2.73596 4.92006 3.44409C3.98031 4.15222 3.21789 5.06896 2.69291 6.12204C2.16793 7.17513 1.89474 8.33576 1.89488 9.51245Z" fill="url(#paint1_linear_2220_12346)"/>
<path d="M5.69255 9.51226C5.69262 10.2042 5.88162 10.8831 6.23915 11.4755C6.59669 12.068 7.10919 12.5515 7.72137 12.8741C8.33356 13.1967 9.0222 13.346 9.71301 13.306C10.4038 13.2659 11.0706 13.038 11.6414 12.6468C12.2121 12.2547 12.6647 11.714 12.9503 11.0832C13.2359 10.4524 13.3437 9.7555 13.2619 9.0679C13.2397 8.90105 13.2625 8.73131 13.3277 8.57617C13.393 8.42103 13.4985 8.28609 13.6332 8.18524C13.768 8.0844 13.9272 8.02129 14.0944 8.00243C14.2617 7.98356 14.431 8.00961 14.5848 8.07791C14.7386 8.14531 14.8718 8.2523 14.9708 8.38797C15.0697 8.52363 15.1309 8.68311 15.1482 8.85016C15.2857 10.0251 15.0541 11.2138 14.4854 12.2511C13.9168 13.2884 13.0393 14.123 11.9748 14.639C10.9103 15.155 9.71152 15.3268 8.54492 15.1306C7.37833 14.9344 6.30175 14.3798 5.46462 13.544C4.62749 12.7081 4.07133 11.6324 3.87333 10.4661C3.67534 9.2998 3.84532 8.1008 4.3597 7.0355C4.87408 5.9702 5.70733 5.09145 6.74381 4.52121C7.78029 3.95098 8.96857 3.71755 10.1437 3.85333C10.2696 3.865 10.3918 3.90168 10.5033 3.96121C10.6148 4.02074 10.7132 4.10192 10.7929 4.2C10.8726 4.29807 10.9319 4.41107 10.9674 4.53237C11.0028 4.65367 11.0137 4.78082 10.9994 4.90638C10.9851 5.03194 10.9458 5.15338 10.8839 5.26357C10.8221 5.37377 10.7388 5.4705 10.6391 5.54811C10.5394 5.62571 10.4251 5.68263 10.3031 5.71552C10.1811 5.74841 10.0537 5.75661 9.92852 5.73964C9.39637 5.67785 8.85718 5.72934 8.34634 5.89073C7.83551 6.05212 7.3646 6.31975 6.96454 6.67605C6.56448 7.03235 6.24432 7.46926 6.0251 7.95807C5.80587 8.44688 5.69254 8.97654 5.69255 9.51226Z" fill="url(#paint2_linear_2220_12346)"/>
<defs>
<linearGradient id="paint0_linear_2220_12346" x1="7.88625" y1="11.405" x2="17.8317" y2="9.93956" gradientUnits="userSpaceOnUse">
<stop stop-color="#313860"/>
<stop offset="1" stop-color="#151928"/>
</linearGradient>
<linearGradient id="paint1_linear_2220_12346" x1="0.489944" y1="19.0001" x2="17.0386" y2="16.5626" gradientUnits="userSpaceOnUse">
<stop stop-color="#313860"/>
<stop offset="1" stop-color="#151928"/>
</linearGradient>
<linearGradient id="paint2_linear_2220_12346" x1="4.087" y1="15.2095" x2="14.0185" y2="13.7468" gradientUnits="userSpaceOnUse">
<stop stop-color="#313860"/>
<stop offset="1" stop-color="#151928"/>
</linearGradient>
</defs>
</svg>
