<svg width="16" height="17" viewBox="0 0 16 17" fill="none" xmlns="http://www.w3.org/2000/svg">
<path d="M5.19967 1.8335H10.7997C12.933 1.8335 14.6663 3.56683 14.6663 5.70016V11.3002C14.6663 12.3257 14.259 13.3092 13.5338 14.0343C12.8087 14.7594 11.8252 15.1668 10.7997 15.1668H5.19967C3.06634 15.1668 1.33301 13.4335 1.33301 11.3002V5.70016C1.33301 4.67466 1.74039 3.69116 2.46553 2.96602C3.19067 2.24088 4.17417 1.8335 5.19967 1.8335ZM5.06634 3.16683C4.42982 3.16683 3.81937 3.41969 3.36928 3.86977C2.9192 4.31986 2.66634 4.93031 2.66634 5.56683V11.4335C2.66634 12.7602 3.73967 13.8335 5.06634 13.8335H10.933C11.5695 13.8335 12.18 13.5806 12.6301 13.1306C13.0802 12.6805 13.333 12.07 13.333 11.4335V5.56683C13.333 4.24016 12.2597 3.16683 10.933 3.16683H5.06634ZM11.4997 4.16683C11.7207 4.16683 11.9326 4.25463 12.0889 4.41091C12.2452 4.56719 12.333 4.77915 12.333 5.00016C12.333 5.22118 12.2452 5.43314 12.0889 5.58942C11.9326 5.7457 11.7207 5.8335 11.4997 5.8335C11.2787 5.8335 11.0667 5.7457 10.9104 5.58942C10.7541 5.43314 10.6663 5.22118 10.6663 5.00016C10.6663 4.77915 10.7541 4.56719 10.9104 4.41091C11.0667 4.25463 11.2787 4.16683 11.4997 4.16683ZM7.99967 5.16683C8.88373 5.16683 9.73158 5.51802 10.3567 6.14314C10.9818 6.76826 11.333 7.61611 11.333 8.50016C11.333 9.38422 10.9818 10.2321 10.3567 10.8572C9.73158 11.4823 8.88373 11.8335 7.99967 11.8335C7.11562 11.8335 6.26777 11.4823 5.64265 10.8572C5.01753 10.2321 4.66634 9.38422 4.66634 8.50016C4.66634 7.61611 5.01753 6.76826 5.64265 6.14314C6.26777 5.51802 7.11562 5.16683 7.99967 5.16683ZM7.99967 6.50016C7.46924 6.50016 6.96053 6.71088 6.58546 7.08595C6.21039 7.46102 5.99967 7.96973 5.99967 8.50016C5.99967 9.0306 6.21039 9.5393 6.58546 9.91438C6.96053 10.2894 7.46924 10.5002 7.99967 10.5002C8.53011 10.5002 9.03882 10.2894 9.41389 9.91438C9.78896 9.5393 9.99967 9.0306 9.99967 8.50016C9.99967 7.96973 9.78896 7.46102 9.41389 7.08595C9.03882 6.71088 8.53011 6.50016 7.99967 6.50016Z" fill="#444444"/>
</svg>
