<svg width="19" height="19" viewBox="0 0 19 19" fill="none" xmlns="http://www.w3.org/2000/svg">
<path d="M8.1495 0H13.5759V1.80879H8.1495V0ZM17.2106 5.77818L18.5075 4.48128L17.2287 3.20246L15.9327 4.49846C14.5127 3.36056 12.7521 2.73196 10.9325 2.71327C9.11294 2.69457 7.33971 3.28687 5.89665 4.39536L7.18089 5.69769C8.25386 4.93561 9.53668 4.52486 10.8527 4.52197L10.8618 4.52288V10.8356L15.3412 15.3195C14.4569 16.208 13.3288 16.814 12.0997 17.0607C10.8707 17.3074 9.59609 17.1837 8.4374 16.7053C7.27871 16.227 6.28809 15.4154 5.59106 14.3735C4.89403 13.3316 4.52195 12.1063 4.52197 10.8527H7.23516L3.61758 7.23516L0 10.8527H2.71318C2.71195 12.1534 3.02244 13.4354 3.61863 14.5914C4.21482 15.7474 5.07935 16.7437 6.13981 17.4968C7.20026 18.2499 8.42575 18.7379 9.71362 18.9199C11.0015 19.1019 12.3142 18.9727 13.5419 18.543C14.7695 18.1132 15.8763 17.3956 16.7695 16.4501C17.6627 15.5047 18.3163 14.3589 18.6756 13.1088C19.0349 11.8588 19.0894 10.5408 18.8345 9.26538C18.5796 7.98994 18.0228 6.79414 17.2106 5.77818Z" fill="url(#paint0_linear_2220_12255)"/>
<defs>
<linearGradient id="paint0_linear_2220_12255" x1="0.490124" y1="19" x2="17.0452" y2="16.5627" gradientUnits="userSpaceOnUse">
<stop stop-color="#313860"/>
<stop offset="1" stop-color="#151928"/>
</linearGradient>
</defs>
</svg>
