<svg width="12" height="13" viewBox="0 0 12 13" fill="none" xmlns="http://www.w3.org/2000/svg">
<path d="M10.3143 8.2492C10.2754 8.20233 10.2372 8.15545 10.1997 8.11022C9.68408 7.48655 9.37213 7.11014 9.37213 5.3446C9.37213 4.43054 9.15346 3.68054 8.72244 3.11804C8.40463 2.70249 7.97502 2.38726 7.40877 2.15429C7.40149 2.15023 7.39498 2.14492 7.38955 2.13858C7.18588 1.45655 6.62854 0.999756 5.99995 0.999756C5.37135 0.999756 4.81424 1.45655 4.61057 2.13788C4.60514 2.14398 4.59872 2.14913 4.59159 2.15311C3.27018 2.6971 2.62799 3.74077 2.62799 5.34389C2.62799 7.11014 2.31651 7.48655 1.80042 8.10952C1.76292 8.15475 1.72471 8.20069 1.68581 8.2485C1.58531 8.3697 1.52163 8.51716 1.50232 8.67342C1.483 8.82967 1.50886 8.9882 1.57682 9.13022C1.72143 9.43491 2.02963 9.62405 2.38143 9.62405H9.62104C9.97119 9.62405 10.2773 9.43514 10.4224 9.13186C10.4906 8.9898 10.5167 8.83115 10.4976 8.67471C10.4784 8.51827 10.4148 8.3706 10.3143 8.2492Z" fill="#718096"/>
<path d="M5.99947 11.5C6.33815 11.4997 6.67044 11.4078 6.9611 11.2339C7.25176 11.0601 7.48995 10.8108 7.65041 10.5126C7.65796 10.4983 7.6617 10.4823 7.66124 10.4661C7.66079 10.45 7.65616 10.4342 7.64781 10.4203C7.63946 10.4065 7.62767 10.395 7.61359 10.3871C7.5995 10.3792 7.58361 10.375 7.56744 10.375H4.43197C4.41578 10.3749 4.39985 10.3791 4.38574 10.387C4.37162 10.3949 4.3598 10.4064 4.35142 10.4202C4.34304 10.4341 4.33839 10.4499 4.33793 10.4661C4.33746 10.4822 4.3412 10.4983 4.34877 10.5126C4.5092 10.8108 4.74736 11.06 5.03797 11.2339C5.32859 11.4077 5.66083 11.4997 5.99947 11.5Z" fill="#718096"/>
</svg>
