<svg width="19" height="19" viewBox="0 0 19 19" fill="none" xmlns="http://www.w3.org/2000/svg">
<path d="M6.4125 19C6.13102 19 5.86256 18.9472 5.60711 18.8417C5.35237 18.7361 5.12824 18.5866 4.93472 18.3931L0.606945 14.0653C0.413426 13.8718 0.263889 13.6476 0.158333 13.3929C0.0527779 13.1374 0 12.869 0 12.5875V6.4125C0 6.13102 0.0527779 5.86256 0.158333 5.60711C0.263889 5.35237 0.413426 5.12824 0.606945 4.93472L4.93472 0.606945C5.12824 0.413426 5.35237 0.263889 5.60711 0.158333C5.86256 0.0527779 6.13102 0 6.4125 0H12.5875C12.869 0 13.1374 0.0527779 13.3929 0.158333C13.6476 0.263889 13.8718 0.413426 14.0653 0.606945L18.3931 4.93472C18.5866 5.12824 18.7361 5.35237 18.8417 5.60711C18.9472 5.86256 19 6.13102 19 6.4125V12.5875C19 12.869 18.9472 13.1374 18.8417 13.3929C18.7361 13.6476 18.5866 13.8718 18.3931 14.0653L14.0653 18.3931C13.8718 18.5866 13.6476 18.7361 13.3929 18.8417C13.1374 18.9472 12.869 19 12.5875 19H6.4125ZM9.5 14.7778C9.79907 14.7778 10.0499 14.6764 10.2526 14.4738C10.4546 14.2718 10.5556 14.0213 10.5556 13.7222C10.5556 13.4231 10.4546 13.1723 10.2526 12.9696C10.0499 12.7676 9.79907 12.6667 9.5 12.6667C9.20093 12.6667 8.95041 12.7676 8.74844 12.9696C8.54578 13.1723 8.44444 13.4231 8.44444 13.7222C8.44444 14.0213 8.54578 14.2718 8.74844 14.4738C8.95041 14.6764 9.20093 14.7778 9.5 14.7778ZM9.5 10.5556C9.79907 10.5556 10.0499 10.4542 10.2526 10.2516C10.4546 10.0496 10.5556 9.79907 10.5556 9.5V5.27778C10.5556 4.9787 10.4546 4.72783 10.2526 4.52517C10.0499 4.3232 9.79907 4.22222 9.5 4.22222C9.20093 4.22222 8.95041 4.3232 8.74844 4.52517C8.54578 4.72783 8.44444 4.9787 8.44444 5.27778V9.5C8.44444 9.79907 8.54578 10.0496 8.74844 10.2516C8.95041 10.4542 9.20093 10.5556 9.5 10.5556Z" fill="url(#paint0_linear_2220_12354)"/>
<defs>
<linearGradient id="paint0_linear_2220_12354" x1="0.490323" y1="19" x2="17.0518" y2="16.5608" gradientUnits="userSpaceOnUse">
<stop stop-color="#313860"/>
<stop offset="1" stop-color="#151928"/>
</linearGradient>
</defs>
</svg>
