<svg width="16" height="16" viewBox="0 0 16 16" fill="none" xmlns="http://www.w3.org/2000/svg">
<rect width="16" height="16" fill="#1E1E1E"/>
<g id="Dashboard" clip-path="url(#clip0_71_399)">
<rect width="1604" height="1080" transform="translate(-1222 -54)" fill="#F8F9FA"/>
<g id="working area">
<g id="header">
<g id="Menu">
<g id="_Input/WithAddons">
<g clip-path="url(#clip1_71_399)">
<rect x="-11" y="-11.75" width="199" height="39.5" rx="15" fill="white"/>
<g id="Auto-added frame">
<g id="Addon">
<g id="Icon">
<path id="Vector" d="M13.6296 12.8459L10.873 10.0894C11.5367 9.20586 11.895 8.13047 11.8937 7.02549C11.8937 4.20303 9.59746 1.90674 6.775 1.90674C3.95254 1.90674 1.65625 4.20303 1.65625 7.02549C1.65625 9.84795 3.95254 12.1442 6.775 12.1442C7.87998 12.1454 8.95537 11.7872 9.83886 11.1235L12.5954 13.8801C12.7349 14.0048 12.9169 14.0714 13.104 14.0662C13.2911 14.0609 13.4691 13.9843 13.6014 13.8519C13.7338 13.7196 13.8104 13.5416 13.8157 13.3545C13.8209 13.1674 13.7543 12.9854 13.6296 12.8459ZM3.11875 7.02549C3.11875 6.30235 3.33318 5.59545 3.73494 4.99418C4.13669 4.39292 4.70772 3.92429 5.37581 3.64755C6.0439 3.37082 6.77905 3.29841 7.4883 3.43949C8.19754 3.58057 8.84902 3.92879 9.36036 4.44013C9.87169 4.95146 10.2199 5.60294 10.361 6.31219C10.5021 7.02143 10.4297 7.75658 10.1529 8.42467C9.8762 9.09276 9.40757 9.66379 8.8063 10.0655C8.20503 10.4673 7.49814 10.6817 6.775 10.6817C5.80566 10.6806 4.87635 10.295 4.19092 9.60956C3.5055 8.92413 3.11991 7.99483 3.11875 7.02549Z" fill="#2D3748"/>
</g>
</g>
</g>
</g>
<rect x="-10.75" y="-11.5" width="198.5" height="39" rx="14.75" stroke="#E2E8F0" stroke-width="0.5"/>
</g>
</g>
</g>
</g>
</g>
<defs>
<clipPath id="clip0_71_399">
<rect width="1604" height="1080" fill="white" transform="translate(-1222 -54)"/>
</clipPath>
<clipPath id="clip1_71_399">
<rect x="-11" y="-11.75" width="199" height="39.5" rx="15" fill="white"/>
</clipPath>
</defs>
</svg>
