<svg width="12" height="13" viewBox="0 0 12 13" fill="none" xmlns="http://www.w3.org/2000/svg">
<g clip-path="url(#clip0_2220_11907)">
<path d="M5.99954 4.375C5.6287 4.375 5.26619 4.48497 4.95785 4.69099C4.64951 4.89702 4.40918 5.18986 4.26727 5.53247C4.12535 5.87508 4.08822 6.25208 4.16057 6.61579C4.23292 6.97951 4.41149 7.3136 4.67372 7.57582C4.93594 7.83805 5.27003 8.01662 5.63375 8.08897C5.99746 8.16132 6.37446 8.12419 6.71707 7.98227C7.05969 7.84036 7.35252 7.60003 7.55855 7.29169C7.76458 6.98335 7.87454 6.62084 7.87454 6.25C7.87306 5.75317 7.67504 5.27712 7.32373 4.92581C6.97242 4.5745 6.49637 4.37648 5.99954 4.375ZM10.0477 6.25C10.0467 6.4252 10.0338 6.60013 10.0092 6.77359L11.1504 7.66703C11.2001 7.70807 11.2336 7.76544 11.2449 7.8289C11.2562 7.89236 11.2445 7.95777 11.212 8.01343L10.1325 9.87718C10.0997 9.93236 10.0485 9.97419 9.98785 9.99533C9.92724 10.0165 9.86111 10.0155 9.8011 9.99273L8.45931 9.45367C8.1799 9.66882 7.87415 9.84738 7.54946 9.985L7.34884 11.4095C7.33761 11.4733 7.30457 11.5313 7.25537 11.5734C7.20616 11.6156 7.14385 11.6393 7.07907 11.6406H4.92001C4.85641 11.6394 4.79511 11.6166 4.74612 11.5761C4.69712 11.5355 4.66333 11.4795 4.65025 11.4173L4.44962 9.99273C4.12404 9.85671 3.81807 9.67787 3.53978 9.46093L2.19798 10C2.138 10.0228 2.07189 10.0238 2.01128 10.0027C1.95067 9.9816 1.89943 9.93982 1.86658 9.88468L0.787045 8.02117C0.754551 7.9655 0.74291 7.9001 0.754202 7.83664C0.765494 7.77318 0.798983 7.7158 0.848686 7.67476L1.98986 6.78133C1.96552 6.60524 1.95268 6.42775 1.95142 6.25C1.95239 6.0748 1.96524 5.89987 1.98986 5.7264L0.848686 4.83297C0.798983 4.79193 0.765494 4.73455 0.754202 4.67109C0.74291 4.60763 0.754551 4.54223 0.787045 4.48656L1.86658 2.62281C1.89939 2.56764 1.95061 2.52581 2.01123 2.50467C2.07185 2.48354 2.13798 2.48446 2.19798 2.50727L3.53978 3.04633C3.81918 2.83117 4.12494 2.65262 4.44962 2.515L4.65025 1.09047C4.66147 1.02666 4.69451 0.968731 4.74372 0.926581C4.79292 0.884431 4.85524 0.860675 4.92001 0.859375H7.07907C7.14267 0.860613 7.20397 0.883373 7.25297 0.92394C7.30196 0.964507 7.33576 1.02048 7.34884 1.08273L7.54946 2.50727C7.87545 2.6432 8.18183 2.82204 8.46048 3.03906L9.8011 2.5C9.86108 2.47717 9.92719 2.47622 9.98781 2.49731C10.0484 2.5184 10.0997 2.56018 10.1325 2.61531L11.212 4.47906C11.2445 4.53473 11.2562 4.60013 11.2449 4.66359C11.2336 4.72705 11.2001 4.78443 11.1504 4.82547L10.0092 5.7189C10.0336 5.89491 10.0464 6.07232 10.0477 6.25Z" fill="#718096"/>
</g>
<defs>
<clipPath id="clip0_2220_11907">
<rect width="12" height="12" fill="white" transform="translate(0 0.25)"/>
</clipPath>
</defs>
</svg>
