<svg width="24" height="24" viewBox="0 0 24 24" fill="none" xmlns="http://www.w3.org/2000/svg">
<path fill-rule="evenodd" clip-rule="evenodd" d="M6.59961 4.36426C4.94276 4.36426 3.59961 5.7074 3.59961 7.36426V16.637C3.59961 18.2938 4.94275 19.637 6.59961 19.637H17.3996C19.0564 19.637 20.3996 18.2938 20.3996 16.637V7.36426C20.3996 5.7074 19.0564 4.36426 17.3996 4.36426H6.59961ZM12.625 5.8918C11.5204 5.8918 10.625 6.78723 10.625 7.89179V16.11C10.625 17.2145 11.5204 18.11 12.625 18.11H16.7195C17.8241 18.11 18.7195 17.2145 18.7195 16.11V7.8918C18.7195 6.78723 17.8241 5.8918 16.7195 5.8918H12.625Z" fill="#676E85"/>
</svg>
