<svg width="57" height="56" viewBox="0 0 57 56" fill="none" xmlns="http://www.w3.org/2000/svg">
<g filter="url(#filter0_d_1455_33941)">
<rect x="6" y="2" width="45" height="45" rx="12" fill="#4FD1C5"/>
</g>
<path d="M34.0417 18.1665H22.9583C22.5384 18.1665 22.1357 18.3333 21.8387 18.6303C21.5418 18.9272 21.375 19.3299 21.375 19.7498V29.2498C21.375 29.6698 21.5418 30.0725 21.8387 30.3694C22.1357 30.6664 22.5384 30.8332 22.9583 30.8332H26.125V29.2498H22.9583V21.3332H34.0417V29.2498H30.875V30.8332H34.0417C34.9125 30.8332 35.625 30.1207 35.625 29.2498V19.7498C35.625 19.3299 35.4582 18.9272 35.1613 18.6303C34.8643 18.3333 34.4616 18.1665 34.0417 18.1665ZM28.5 22.9165L25.3333 26.0832H27.7083V30.8332H29.2917V26.0832H31.6667L28.5 22.9165Z" fill="white"/>
<defs>
<filter id="filter0_d_1455_33941" x="0.5" y="-2.38419e-07" width="56" height="56" filterUnits="userSpaceOnUse" color-interpolation-filters="sRGB">
<feFlood flood-opacity="0" result="BackgroundImageFix"/>
<feColorMatrix in="SourceAlpha" type="matrix" values="0 0 0 0 0 0 0 0 0 0 0 0 0 0 0 0 0 0 127 0" result="hardAlpha"/>
<feOffset dy="3.5"/>
<feGaussianBlur stdDeviation="2.75"/>
<feColorMatrix type="matrix" values="0 0 0 0 0 0 0 0 0 0 0 0 0 0 0 0 0 0 0.02 0"/>
<feBlend mode="normal" in2="BackgroundImageFix" result="effect1_dropShadow_1455_33941"/>
<feBlend mode="normal" in="SourceGraphic" in2="effect1_dropShadow_1455_33941" result="shape"/>
</filter>
</defs>
</svg>
