<svg width="21" height="21" viewBox="0 0 21 21" fill="none" xmlns="http://www.w3.org/2000/svg">
<g clip-path="url(#clip0_2220_12183)">
<path d="M10.5007 7.16683C11.4173 7.16683 12.1673 6.41683 12.1673 5.50016C12.1673 4.5835 11.4173 3.8335 10.5007 3.8335C9.58398 3.8335 8.83398 4.5835 8.83398 5.50016C8.83398 6.41683 9.58398 7.16683 10.5007 7.16683ZM10.5007 8.8335C9.58398 8.8335 8.83398 9.5835 8.83398 10.5002C8.83398 11.4168 9.58398 12.1668 10.5007 12.1668C11.4173 12.1668 12.1673 11.4168 12.1673 10.5002C12.1673 9.5835 11.4173 8.8335 10.5007 8.8335ZM10.5007 13.8335C9.58398 13.8335 8.83398 14.5835 8.83398 15.5002C8.83398 16.4168 9.58398 17.1668 10.5007 17.1668C11.4173 17.1668 12.1673 16.4168 12.1673 15.5002C12.1673 14.5835 11.4173 13.8335 10.5007 13.8335Z" fill="#A0AEC0"/>
</g>
<defs>
<clipPath id="clip0_2220_12183">
<rect width="20" height="20" fill="white" transform="translate(0.5 0.5)"/>
</clipPath>
</defs>
</svg>
