<svg width="31" height="32" viewBox="0 0 31 32" fill="none" xmlns="http://www.w3.org/2000/svg">
<path d="M21.1382 8.78467C18.6969 8.78467 17.6652 9.94959 15.965 9.94959C14.2219 9.94959 12.8923 8.79314 10.7768 8.79314C8.70608 8.79314 6.49793 10.0574 5.09567 12.211C3.12668 15.248 3.4609 20.9679 6.6499 25.8407C7.79061 27.5851 9.31397 29.5413 11.312 29.5625H11.3483C13.0848 29.5625 13.6007 28.4255 15.9905 28.4121H16.0268C18.3809 28.4121 18.8531 29.5559 20.5823 29.5559H20.6187C22.6167 29.5347 24.2218 27.3671 25.3625 25.6294C26.1835 24.3797 26.4887 23.7525 27.1184 22.3387C22.5053 20.5877 21.7642 14.048 26.3264 11.5408C24.9338 9.79701 22.977 8.78709 21.1321 8.78709L21.1382 8.78467Z" fill="#2D3748"/>
<path d="M20.6008 2.43896C19.1477 2.53766 17.4524 3.46281 16.4594 4.67072C15.5585 5.76541 14.8174 7.38928 15.108 8.9641H15.2243C16.7719 8.9641 18.3558 8.03228 19.2809 6.8383C20.1722 5.70184 20.8479 4.09129 20.6008 2.43896Z" fill="#2D3748"/>
</svg>
