<svg width="286" height="100" viewBox="0 0 286 100" fill="none" xmlns="http://www.w3.org/2000/svg">
<mask id="mask0_2269_29040" style="mask-type:luminance" maskUnits="userSpaceOnUse" x="28" y="11" width="48" height="73">
<path d="M28.5723 11.7173H75.4294V83.7173H28.5723V11.7173Z" fill="white"/>
</mask>
<g mask="url(#mask0_2269_29040)">
<path d="M46.9532 15.3124L71.7925 40.1517C72.2925 40.6517 72.7389 41.1964 73.1318 41.7857C73.5247 42.372 73.855 42.994 74.1258 43.6458C74.3967 44.3005 74.602 44.9732 74.7389 45.6666C74.8758 46.3601 74.9473 47.0595 74.9473 47.7678C74.9473 48.4732 74.8758 49.1755 74.7389 49.869C74.602 50.5624 74.3967 51.2351 74.1258 51.8869C73.855 52.5416 73.5247 53.1607 73.1318 53.75C72.7389 54.3363 72.2925 54.8809 71.7925 55.3809L46.9532 80.2202C40.1705 87.0029 28.5663 82.1964 28.5723 72.5982V22.9196C28.5663 13.3363 40.1705 8.52971 46.9532 15.3124Z" fill="#72FFFF"/>
</g>
<mask id="mask1_2269_29040" style="mask-type:luminance" maskUnits="userSpaceOnUse" x="28" y="11" width="48" height="56">
<path d="M28.5723 11.7173H75.4294V66.2857H28.5723V11.7173Z" fill="white"/>
</mask>
<g mask="url(#mask1_2269_29040)">
<path d="M46.9551 15.3126C40.211 8.5686 28.7408 13.2829 28.5801 22.7591C28.5801 22.7591 67.6664 59.7412 61.4491 65.771L71.8152 55.4049C72.3152 54.9049 72.7616 54.3603 73.1545 53.771C73.5473 53.1847 73.8807 52.5627 74.1515 51.9109C74.4194 51.2561 74.6247 50.5835 74.7616 49.89C74.9015 49.1966 74.97 48.4972 74.97 47.7888C74.97 47.0835 74.9015 46.3811 74.7616 45.6877C74.6247 44.9942 74.4194 44.3216 74.1515 43.6668C73.8807 43.015 73.5473 42.396 73.1545 41.8067C72.7616 41.2174 72.3152 40.6757 71.8152 40.1757L46.9551 15.3126Z" fill="#00D7FF"/>
</g>
<mask id="mask2_2269_29040" style="mask-type:luminance" maskUnits="userSpaceOnUse" x="91" y="11" width="15" height="15">
<path d="M91.4294 11.7173H105.715V25.9048H91.4294V11.7173Z" fill="white"/>
</mask>
<g mask="url(#mask2_2269_29040)">
<path d="M105.848 18.8363C105.848 19.2976 105.803 19.7559 105.714 20.2083C105.622 20.6607 105.488 21.1012 105.312 21.5298C105.137 21.9553 104.919 22.3601 104.66 22.744C104.405 23.128 104.113 23.4851 103.785 23.8125C103.461 24.1369 103.104 24.4315 102.72 24.6875C102.336 24.9434 101.931 25.1607 101.503 25.3363C101.077 25.5149 100.637 25.6488 100.184 25.7381C99.7289 25.8274 99.2736 25.872 98.8093 25.872C98.348 25.872 97.8896 25.8274 97.4373 25.7381C96.9849 25.6488 96.5444 25.5149 96.1158 25.3363C95.6902 25.1607 95.2855 24.9434 94.9015 24.6875C94.5146 24.4315 94.1605 24.1369 93.8331 23.8125C93.5057 23.4851 93.214 23.128 92.9581 22.744C92.7021 22.3601 92.4849 21.9553 92.3093 21.5298C92.1307 21.1012 91.9968 20.6607 91.9075 20.2083C91.8182 19.7559 91.7736 19.2976 91.7736 18.8363C91.7736 18.372 91.8182 17.9167 91.9075 17.4613C91.9968 17.0089 92.1307 16.5684 92.3093 16.1428C92.4849 15.7143 92.7021 15.3095 92.9581 14.9256C93.214 14.5417 93.5057 14.1845 93.8331 13.8601C94.1605 13.5327 94.5146 13.2411 94.9015 12.9821C95.2855 12.7262 95.6902 12.5089 96.1158 12.3333C96.5444 12.1577 96.9849 12.0238 97.4373 11.9315C97.8896 11.8423 98.348 11.7976 98.8093 11.7976C99.2736 11.7976 99.7289 11.8423 100.184 11.9315C100.637 12.0238 101.077 12.1577 101.503 12.3333C101.931 12.5089 102.336 12.7262 102.72 12.9821C103.104 13.2411 103.461 13.5327 103.785 13.8601C104.113 14.1845 104.405 14.5417 104.66 14.9256C104.919 15.3095 105.137 15.7143 105.312 16.1428C105.488 16.5684 105.622 17.0089 105.714 17.4613C105.803 17.9167 105.848 18.372 105.848 18.8363Z" fill="#590696"/>
<path d="M105.848 18.8363C105.848 19.2976 105.803 19.7559 105.714 20.2083C105.622 20.6607 105.488 21.1012 105.312 21.5298C105.137 21.9553 104.919 22.3601 104.66 22.744C104.405 23.128 104.113 23.4851 103.785 23.8125C103.461 24.1369 103.104 24.4315 102.72 24.6875C102.336 24.9434 101.931 25.1607 101.503 25.3363C101.077 25.5149 100.637 25.6488 100.184 25.7381C99.7289 25.8274 99.2736 25.872 98.8093 25.872C98.348 25.872 97.8896 25.8274 97.4373 25.7381C96.9849 25.6488 96.5444 25.5149 96.1158 25.3363C95.6902 25.1607 95.2855 24.9434 94.9015 24.6875C94.5146 24.4315 94.1605 24.1369 93.8331 23.8125C93.5057 23.4851 93.214 23.128 92.9581 22.744C92.7021 22.3601 92.4849 21.9553 92.3093 21.5298C92.1307 21.1012 91.9968 20.6607 91.9075 20.2083C91.8182 19.7559 91.7736 19.2976 91.7736 18.8363C91.7736 18.372 91.8182 17.9167 91.9075 17.4613C91.9968 17.0089 92.1307 16.5684 92.3093 16.1428C92.4849 15.7143 92.7021 15.3095 92.9581 14.9256C93.214 14.5417 93.5057 14.1845 93.8331 13.8601C94.1605 13.5327 94.5146 13.2411 94.9015 12.9821C95.2855 12.7262 95.6902 12.5089 96.1158 12.3333C96.5444 12.1577 96.9849 12.0238 97.4373 11.9315C97.8896 11.8423 98.348 11.7976 98.8093 11.7976C99.2736 11.7976 99.7289 11.8423 100.184 11.9315C100.637 12.0238 101.077 12.1577 101.503 12.3333C101.931 12.5089 102.336 12.7262 102.72 12.9821C103.104 13.2411 103.461 13.5327 103.785 13.8601C104.113 14.1845 104.405 14.5417 104.66 14.9256C104.919 15.3095 105.137 15.7143 105.312 16.1428C105.488 16.5684 105.622 17.0089 105.714 17.4613C105.803 17.9167 105.848 18.372 105.848 18.8363Z" fill="#590696"/>
</g>
<mask id="mask3_2269_29040" style="mask-type:luminance" maskUnits="userSpaceOnUse" x="57" y="12" width="49" height="72">
<path d="M57.9062 12.1904H105.716V83.0476H57.9062V12.1904Z" fill="white"/>
</mask>
<g mask="url(#mask3_2269_29040)">
<path d="M102.693 40.2142L77.8536 15.3749C71.187 8.70226 53.4132 16.4404 59.4965 22.5237L77.3566 40.3898C77.8566 40.8898 78.303 41.4344 78.6989 42.0207C79.0917 42.607 79.4221 43.229 79.6929 43.8808C79.9638 44.5356 80.1691 45.2082 80.306 45.9017C80.4429 46.5951 80.5144 47.2945 80.5144 48.0029C80.5144 48.7082 80.4429 49.4076 80.306 50.1011C80.1691 50.7945 79.9638 51.4671 79.6929 52.1219C79.4221 52.7737 79.0917 53.3957 78.6989 53.982C78.303 54.5713 77.8566 55.113 77.3566 55.613L59.5054 73.4701C54.065 78.9076 71.2525 86.9285 77.8536 80.3243L102.693 55.485C103.196 54.985 103.645 54.4404 104.041 53.8511C104.437 53.2618 104.77 52.6398 105.044 51.985C105.315 51.3302 105.523 50.6546 105.66 49.9582C105.8 49.2618 105.869 48.5594 105.869 47.8511C105.869 47.1398 105.8 46.4374 105.66 45.741C105.523 45.0445 105.315 44.3689 105.044 43.7142C104.77 43.0594 104.437 42.4374 104.041 41.8481C103.645 41.2588 103.196 40.7142 102.693 40.2142Z" fill="#0096FF"/>
</g>
<mask id="mask4_2269_29040" style="mask-type:luminance" maskUnits="userSpaceOnUse" x="57" y="12" width="49" height="54">
<path d="M57.9062 12.1904H105.716V65.5238H57.9062V12.1904Z" fill="white"/>
</mask>
<g mask="url(#mask4_2269_29040)">
<path d="M102.693 40.2142L77.8536 15.3749C71.187 8.70226 53.4132 16.4404 59.4965 22.5237L77.3566 40.3898C78.2197 41.2499 78.9161 42.229 79.4429 43.3273C79.9727 44.4255 80.3031 45.5802 80.437 46.7915C86.5917 54.0177 91.7078 61.0326 92.7733 65.4046L102.711 55.4701C103.211 54.9701 103.66 54.4255 104.053 53.8362C104.446 53.2469 104.779 52.6249 105.05 51.9701C105.321 51.3154 105.526 50.6398 105.663 49.9433C105.8 49.2499 105.872 48.5475 105.869 47.8392C105.869 47.1279 105.797 46.4285 105.66 45.732C105.52 45.0386 105.315 44.363 105.041 43.7082C104.77 43.0535 104.434 42.4344 104.041 41.8451C103.645 41.2558 103.196 40.7142 102.693 40.2142Z" fill="#5800FF"/>
</g>
<path d="M154.813 65.7289L140.819 32.0771H134.982L120.988 65.7289H127.491L130.161 59.226H145.64L148.31 65.7289H154.813ZM137.679 40.8301L137.875 40.0146H137.95L138.098 40.8301L143.539 54.0831H132.262L137.679 40.8301Z" fill="#231F20"/>
<path d="M164.55 65.7287V53.9102C164.55 48.4936 167.345 45.4549 171.449 45.4549H173.848V40.312H171.128C167.815 40.312 165.491 42.1156 164.303 44.9102V40.312H158.568V65.7287H164.55Z" fill="#231F20"/>
<path d="M189.547 66.4965C196.274 66.4965 201.464 62.934 201.464 53.8864V40.312H195.506V53.7108C195.506 58.3596 193.529 60.9311 189.524 60.9311C185.541 60.9311 183.515 58.4102 183.515 53.7108V40.312H177.58V53.8864C177.58 62.934 182.747 66.4965 189.547 66.4965Z" fill="#231F20"/>
<path d="M213.926 65.7289V30.8896H207.943V65.7289H213.926Z" fill="#231F20"/>
<path d="M223.862 36.3538C226.288 36.3538 227.645 34.8449 227.645 32.9163C227.645 31.0622 226.288 29.5056 223.889 29.5056C221.538 29.5056 220.178 31.0622 220.178 32.9163C220.178 34.8211 221.565 36.3538 223.862 36.3538ZM226.904 65.7288V40.3122H220.922V65.7288H226.904Z" fill="#231F20"/>
<path d="M249.528 65.7288V60.7586H245.596C243.694 60.7586 241.912 59.8925 241.912 56.333V45.455H249.528V40.3122H241.912V32.8181L235.93 32.8687V40.3122H230.662V45.455H235.93V56.0622C235.93 64.4431 240.528 65.7288 244.361 65.7288H249.528Z" fill="#231F20"/>
<path d="M256.349 74.4072C261.989 74.4072 264.56 72.7495 267.551 65.1602L277.465 40.312L271.087 40.3358L265.203 55.7138L264.534 58.312L263.891 55.69L257.909 40.312H251.602L261.346 64.5412L261.048 65.4072C259.986 68.2019 258.971 69.4608 256.301 69.4608H252.072V74.4072H256.349Z" fill="#231F20"/>
</svg>
