<svg width="25" height="24" viewBox="0 0 25 24" fill="none" xmlns="http://www.w3.org/2000/svg">
<path d="M22.6796 10.3819L22.5737 9.93234H12.8031V14.0677H18.6409C18.0348 16.9458 15.2223 18.4608 12.9249 18.4608C11.2534 18.4608 9.49133 17.7577 8.32509 16.6275C7.70977 16.0217 7.21999 15.3005 6.88377 14.5051C6.54755 13.7098 6.37151 12.856 6.36571 11.9925C6.36571 10.2506 7.14852 8.50828 8.28759 7.36219C9.42665 6.21609 11.147 5.57484 12.8574 5.57484C14.8163 5.57484 16.2202 6.615 16.7452 7.08937L19.6838 4.16625C18.8218 3.40875 16.4537 1.5 12.7627 1.5C9.91509 1.5 7.18462 2.59078 5.18868 4.58015C3.21899 6.53906 2.19946 9.37172 2.19946 12C2.19946 14.6283 3.16415 17.3194 5.0729 19.2937C7.11243 21.3994 10.0009 22.5 12.9751 22.5C15.6812 22.5 18.2462 21.4397 20.0743 19.5159C21.8715 17.6222 22.801 15.0019 22.801 12.255C22.801 11.0986 22.6848 10.4119 22.6796 10.3819Z" fill="#2D3748"/>
</svg>
