<svg width="12" height="13" viewBox="0 0 12 13" fill="none" xmlns="http://www.w3.org/2000/svg">
<path d="M7.79627 2.26359C7.34018 1.77117 6.70315 1.5 6.00002 1.5C5.29315 1.5 4.65401 1.76953 4.20002 2.25891C3.74112 2.75367 3.51752 3.42609 3.57002 4.15219C3.67409 5.58469 4.76416 6.75 6.00002 6.75C7.23588 6.75 8.32408 5.58492 8.42979 4.15265C8.48299 3.43312 8.25799 2.76211 7.79627 2.26359Z" fill="#718096"/>
<path d="M10.1251 11.999H1.87513C1.76715 12.0004 1.66021 11.9777 1.56209 11.9326C1.46398 11.8875 1.37716 11.8211 1.30795 11.7382C1.1556 11.5561 1.0942 11.3074 1.13967 11.0559C1.33748 9.95855 1.95482 9.03676 2.92513 8.38965C3.78716 7.8152 4.87912 7.49902 6.00013 7.49902C7.12115 7.49902 8.2131 7.81543 9.07513 8.38965C10.0454 9.03652 10.6628 9.95832 10.8606 11.0557C10.9061 11.3071 10.8447 11.5558 10.6923 11.7379C10.6231 11.8209 10.5363 11.8873 10.4382 11.9325C10.3401 11.9777 10.2331 12.0004 10.1251 11.999Z" fill="#718096"/>
</svg>
