<svg width="57" height="56" viewBox="0 0 57 56" fill="none" xmlns="http://www.w3.org/2000/svg">
<g filter="url(#filter0_d_2220_11933)">
<rect x="6" y="2" width="45" height="45" rx="12" fill="#5D5FEF"/>
</g>
<path d="M35.25 15H22.5833C21.7125 15 21 15.7125 21 16.5833V32.4167C21 33.2875 21.7125 34 22.5833 34H35.25C36.1208 34 36.8333 33.2875 36.8333 32.4167V16.5833C36.8333 15.7125 36.1208 15 35.25 15ZM25.75 30.8333C25.75 31.2688 25.3937 31.625 24.9583 31.625H23.375C22.9396 31.625 22.5833 31.2688 22.5833 30.8333V30.4375C22.5833 30.0021 22.9396 29.6458 23.375 29.6458H24.9583C25.3937 29.6458 25.75 30.0021 25.75 30.4375V30.8333ZM25.75 27.6667C25.75 28.1021 25.3937 28.4583 24.9583 28.4583H23.375C22.9396 28.4583 22.5833 28.1021 22.5833 27.6667V27.2708C22.5833 26.8354 22.9396 26.4792 23.375 26.4792H24.9583C25.3937 26.4792 25.75 26.8354 25.75 27.2708V27.6667ZM25.75 24.5C25.75 24.9354 25.3937 25.2917 24.9583 25.2917H23.375C22.9396 25.2917 22.5833 24.9354 22.5833 24.5V24.1042C22.5833 23.6687 22.9396 23.3125 23.375 23.3125H24.9583C25.3937 23.3125 25.75 23.6687 25.75 24.1042V24.5ZM30.5 30.8333C30.5 31.2688 30.1437 31.625 29.7083 31.625H28.125C27.6896 31.625 27.3333 31.2688 27.3333 30.8333V30.4375C27.3333 30.0021 27.6896 29.6458 28.125 29.6458H29.7083C30.1437 29.6458 30.5 30.0021 30.5 30.4375V30.8333ZM30.5 27.6667C30.5 28.1021 30.1437 28.4583 29.7083 28.4583H28.125C27.6896 28.4583 27.3333 28.1021 27.3333 27.6667V27.2708C27.3333 26.8354 27.6896 26.4792 28.125 26.4792H29.7083C30.1437 26.4792 30.5 26.8354 30.5 27.2708V27.6667ZM30.5 24.5C30.5 24.9354 30.1437 25.2917 29.7083 25.2917H28.125C27.6896 25.2917 27.3333 24.9354 27.3333 24.5V24.1042C27.3333 23.6687 27.6896 23.3125 28.125 23.3125H29.7083C30.1437 23.3125 30.5 23.6687 30.5 24.1042V24.5ZM35.25 30.8333C35.25 31.2688 34.8937 31.625 34.4583 31.625H32.875C32.4396 31.625 32.0833 31.2688 32.0833 30.8333V30.4375C32.0833 30.0021 32.4396 29.6458 32.875 29.6458H34.4583C34.8937 29.6458 35.25 30.0021 35.25 30.4375V30.8333ZM35.25 27.6667C35.25 28.1021 34.8937 28.4583 34.4583 28.4583H32.875C32.4396 28.4583 32.0833 28.1021 32.0833 27.6667V27.2708C32.0833 26.8354 32.4396 26.4792 32.875 26.4792H34.4583C34.8937 26.4792 35.25 26.8354 35.25 27.2708V27.6667ZM35.25 24.5C35.25 24.9354 34.8937 25.2917 34.4583 25.2917H32.875C32.4396 25.2917 32.0833 24.9354 32.0833 24.5V24.1042C32.0833 23.6687 32.4396 23.3125 32.875 23.3125H34.4583C34.8937 23.3125 35.25 23.6687 35.25 24.1042V24.5ZM35.25 20.9375C35.25 21.3729 34.8937 21.7292 34.4583 21.7292H23.375C22.9396 21.7292 22.5833 21.3729 22.5833 20.9375V17.7708C22.5833 17.3354 22.9396 16.9792 23.375 16.9792H34.4583C34.8937 16.9792 35.25 17.3354 35.25 17.7708V20.9375Z" fill="white"/>
<defs>
<filter id="filter0_d_2220_11933" x="0.5" y="-2.38419e-07" width="56" height="56" filterUnits="userSpaceOnUse" color-interpolation-filters="sRGB">
<feFlood flood-opacity="0" result="BackgroundImageFix"/>
<feColorMatrix in="SourceAlpha" type="matrix" values="0 0 0 0 0 0 0 0 0 0 0 0 0 0 0 0 0 0 127 0" result="hardAlpha"/>
<feOffset dy="3.5"/>
<feGaussianBlur stdDeviation="2.75"/>
<feColorMatrix type="matrix" values="0 0 0 0 0 0 0 0 0 0 0 0 0 0 0 0 0 0 0.02 0"/>
<feBlend mode="normal" in2="BackgroundImageFix" result="effect1_dropShadow_2220_11933"/>
<feBlend mode="normal" in="SourceGraphic" in2="effect1_dropShadow_2220_11933" result="shape"/>
</filter>
</defs>
</svg>
