<svg width="57" height="56" viewBox="0 0 57 56" fill="none" xmlns="http://www.w3.org/2000/svg">
<g filter="url(#filter0_d_2220_11918)">
<rect x="6" y="2" width="45" height="45" rx="12" fill="#5D5FEF"/>
</g>
<path d="M36.8125 29.25V28.0625H35.565C35.4885 27.6908 35.3409 27.3374 35.1304 27.0217L36.0151 26.137L35.1755 25.2974L34.2908 26.1821C33.9751 25.9716 33.6217 25.824 33.25 25.7475V24.5H32.0625V25.7475C31.6908 25.824 31.3374 25.9716 31.0217 26.1821L30.137 25.2974L29.2974 26.137L30.1821 27.0217C29.9716 27.3374 29.824 27.6908 29.7475 28.0625H28.5V29.25H29.7475C29.824 29.6217 29.9716 29.9751 30.1821 30.2908L29.2974 31.1755L30.137 32.0151L31.0217 31.1304C31.3374 31.3409 31.6908 31.4885 32.0625 31.565V32.8125H33.25V31.565C33.6217 31.4885 33.9751 31.3409 34.2908 31.1304L35.1755 32.0151L36.0151 31.1755L35.1304 30.2908C35.3409 29.9751 35.4885 29.6217 35.565 29.25H36.8125ZM32.6562 30.4375C32.304 30.4375 31.9596 30.333 31.6666 30.1373C31.3737 29.9416 31.1454 29.6634 31.0106 29.3379C30.8758 29.0124 30.8405 28.6543 30.9092 28.3087C30.978 27.9632 31.1476 27.6458 31.3967 27.3967C31.6458 27.1476 31.9632 26.978 32.3087 26.9092C32.6543 26.8405 33.0124 26.8758 33.3379 27.0106C33.6634 27.1454 33.9416 27.3737 34.1373 27.6666C34.333 27.9596 34.4375 28.304 34.4375 28.6562C34.437 29.1285 34.2492 29.5813 33.9153 29.9153C33.5813 30.2492 33.1285 30.437 32.6562 30.4375Z" fill="white"/>
<path d="M35.625 17.375H21.375C21.0602 17.3753 20.7583 17.5005 20.5357 17.7232C20.313 17.9458 20.1878 18.2477 20.1875 18.5625V30.4375C20.1878 30.7523 20.313 31.0542 20.5357 31.2768C20.7583 31.4995 21.0602 31.6247 21.375 31.625H27.3125V30.4375H21.375V22.125H35.625V23.9062H36.8125V18.5625C36.8122 18.2477 36.687 17.9458 36.4643 17.7232C36.2417 17.5005 35.9398 17.3753 35.625 17.375ZM35.625 20.9375H21.375V18.5625H35.625V20.9375Z" fill="white"/>
<path d="M30.875 20.3438C31.2029 20.3438 31.4688 20.0779 31.4688 19.75C31.4688 19.4221 31.2029 19.1562 30.875 19.1562C30.5471 19.1562 30.2812 19.4221 30.2812 19.75C30.2812 20.0779 30.5471 20.3438 30.875 20.3438Z" fill="white"/>
<path d="M32.6562 20.3438C32.9842 20.3438 33.25 20.0779 33.25 19.75C33.25 19.4221 32.9842 19.1562 32.6562 19.1562C32.3283 19.1562 32.0625 19.4221 32.0625 19.75C32.0625 20.0779 32.3283 20.3438 32.6562 20.3438Z" fill="white"/>
<path d="M34.4375 20.3438C34.7654 20.3438 35.0312 20.0779 35.0312 19.75C35.0312 19.4221 34.7654 19.1562 34.4375 19.1562C34.1096 19.1562 33.8438 19.4221 33.8438 19.75C33.8438 20.0779 34.1096 20.3438 34.4375 20.3438Z" fill="white"/>
<defs>
<filter id="filter0_d_2220_11918" x="0.5" y="-2.38419e-07" width="56" height="56" filterUnits="userSpaceOnUse" color-interpolation-filters="sRGB">
<feFlood flood-opacity="0" result="BackgroundImageFix"/>
<feColorMatrix in="SourceAlpha" type="matrix" values="0 0 0 0 0 0 0 0 0 0 0 0 0 0 0 0 0 0 127 0" result="hardAlpha"/>
<feOffset dy="3.5"/>
<feGaussianBlur stdDeviation="2.75"/>
<feColorMatrix type="matrix" values="0 0 0 0 0 0 0 0 0 0 0 0 0 0 0 0 0 0 0.02 0"/>
<feBlend mode="normal" in2="BackgroundImageFix" result="effect1_dropShadow_2220_11918"/>
<feBlend mode="normal" in="SourceGraphic" in2="effect1_dropShadow_2220_11918" result="shape"/>
</filter>
</defs>
</svg>
