<svg width="57" height="56" viewBox="0 0 57 56" fill="none" xmlns="http://www.w3.org/2000/svg">
<g filter="url(#filter0_d_2220_11913)">
<rect x="6" y="2" width="45" height="45" rx="12" fill="#5D5FEF"/>
</g>
<path d="M28.5 23.55C29.7598 23.55 30.968 24.0504 31.8588 24.9412C32.7496 25.832 33.25 27.0402 33.25 28.3V34H23.75V28.3C23.75 27.0402 24.2504 25.832 25.1412 24.9412C26.032 24.0504 27.2402 23.55 28.5 23.55ZM22.1236 26.4057C21.9724 26.9156 21.8831 27.4419 21.8576 27.9732L21.85 28.3V34H19V29.725C18.9998 28.9057 19.3021 28.1152 19.849 27.505C20.3958 26.8949 21.1486 26.5082 21.963 26.419L22.1246 26.4057H22.1236ZM34.8764 26.4057C35.7218 26.4572 36.5157 26.8294 37.0962 27.4462C37.6766 28.063 37.9999 28.878 38 29.725V34H35.15V28.3C35.15 27.6417 35.055 27.0061 34.8764 26.4057ZM22.325 20.7C22.9549 20.7 23.559 20.9502 24.0044 21.3956C24.4498 21.841 24.7 22.4451 24.7 23.075C24.7 23.7049 24.4498 24.309 24.0044 24.7544C23.559 25.1998 22.9549 25.45 22.325 25.45C21.6951 25.45 21.091 25.1998 20.6456 24.7544C20.2002 24.309 19.95 23.7049 19.95 23.075C19.95 22.4451 20.2002 21.841 20.6456 21.3956C21.091 20.9502 21.6951 20.7 22.325 20.7ZM34.675 20.7C35.3049 20.7 35.909 20.9502 36.3544 21.3956C36.7998 21.841 37.05 22.4451 37.05 23.075C37.05 23.7049 36.7998 24.309 36.3544 24.7544C35.909 25.1998 35.3049 25.45 34.675 25.45C34.0451 25.45 33.441 25.1998 32.9956 24.7544C32.5502 24.309 32.3 23.7049 32.3 23.075C32.3 22.4451 32.5502 21.841 32.9956 21.3956C33.441 20.9502 34.0451 20.7 34.675 20.7ZM28.5 15C29.5078 15 30.4744 15.4004 31.187 16.113C31.8996 16.8256 32.3 17.7922 32.3 18.8C32.3 19.8078 31.8996 20.7744 31.187 21.487C30.4744 22.1996 29.5078 22.6 28.5 22.6C27.4922 22.6 26.5256 22.1996 25.813 21.487C25.1004 20.7744 24.7 19.8078 24.7 18.8C24.7 17.7922 25.1004 16.8256 25.813 16.113C26.5256 15.4004 27.4922 15 28.5 15Z" fill="white"/>
<defs>
<filter id="filter0_d_2220_11913" x="0.5" y="-2.38419e-07" width="56" height="56" filterUnits="userSpaceOnUse" color-interpolation-filters="sRGB">
<feFlood flood-opacity="0" result="BackgroundImageFix"/>
<feColorMatrix in="SourceAlpha" type="matrix" values="0 0 0 0 0 0 0 0 0 0 0 0 0 0 0 0 0 0 127 0" result="hardAlpha"/>
<feOffset dy="3.5"/>
<feGaussianBlur stdDeviation="2.75"/>
<feColorMatrix type="matrix" values="0 0 0 0 0 0 0 0 0 0 0 0 0 0 0 0 0 0 0.02 0"/>
<feBlend mode="normal" in2="BackgroundImageFix" result="effect1_dropShadow_2220_11913"/>
<feBlend mode="normal" in="SourceGraphic" in2="effect1_dropShadow_2220_11913" result="shape"/>
</filter>
</defs>
</svg>
