<svg width="19" height="20" viewBox="0 0 19 20" fill="none" xmlns="http://www.w3.org/2000/svg">
<g clip-path="url(#clip0_1455_24621)">
<path d="M12.861 8.69555C12.861 8.93995 12.7639 9.17433 12.5911 9.34715C12.4183 9.51996 12.1839 9.61705 11.9395 9.61705C11.6951 9.61705 11.4607 9.51996 11.2879 9.34715C11.1151 9.17433 11.018 8.93995 11.018 8.69555C11.018 8.45115 11.1151 8.21676 11.2879 8.04395C11.4607 7.87113 11.6951 7.77405 11.9395 7.77405C12.1839 7.77405 12.4183 7.87113 12.5911 8.04395C12.7639 8.21676 12.861 8.45115 12.861 8.69555ZM7.88301 8.69555C7.88301 8.81661 7.85917 8.93649 7.81284 9.04834C7.76651 9.16019 7.6986 9.26182 7.61299 9.34743C7.52739 9.43303 7.42576 9.50094 7.31391 9.54727C7.20206 9.5936 7.08218 9.61744 6.96112 9.61744C6.84005 9.61744 6.72017 9.5936 6.60832 9.54727C6.49647 9.50094 6.39484 9.43303 6.30924 9.34743C6.22363 9.26182 6.15572 9.16019 6.10939 9.04834C6.06306 8.93649 6.03922 8.81661 6.03922 8.69555C6.03922 8.45105 6.13635 8.21656 6.30924 8.04367C6.48213 7.87078 6.71661 7.77365 6.96112 7.77365C7.20562 7.77365 7.4401 7.87078 7.61299 8.04367C7.78588 8.21656 7.88301 8.45105 7.88301 8.69555ZM7.77218 19.3989C4.04184 18.623 1.25914 16.0288 0.265594 12.399C-0.0676979 11.1822 -0.0676979 8.84438 0.265594 7.62759C1.19105 4.24876 3.74339 1.69642 7.12143 0.770965C8.33901 0.437673 10.676 0.437673 11.8936 0.770965C15.2716 1.69642 17.8248 4.24876 18.7494 7.6268C18.9394 8.31872 18.9822 8.75888 18.9822 10.0129C18.9822 11.2669 18.9394 11.707 18.7502 12.399C17.824 15.7802 15.236 18.365 11.8936 19.2469C10.7924 19.5374 8.79343 19.611 7.77218 19.3989ZM13.0288 12.0245C10.6166 10.9573 9.81943 10.6494 9.46634 10.6494C9.11326 10.6494 8.33189 10.9502 5.99884 11.9825C4.34347 12.7156 2.96834 13.3759 2.94301 13.3996H16.1346L13.0288 12.0245ZM5.21272 11.7387C6.49601 11.1616 7.63522 10.6407 7.74289 10.5797C7.94714 10.4649 8.00968 10.5085 3.55893 7.6648C3.11559 7.38138 2.74905 7.11221 2.74747 7.15021V12.8423C3.57001 12.4762 4.39176 12.1083 5.21272 11.7387ZM16.3578 10.0018V7.18426C16.3578 7.09717 15.031 7.97038 13.5901 8.86259C11.2151 10.3303 10.9927 10.4934 11.212 10.5924C12.2768 11.0761 16.2945 12.8581 16.3578 12.866V10.0018ZM9.89068 10.0889C10.3221 10.1878 10.3997 10.1712 10.8613 9.88067C11.1376 9.70651 11.3798 9.54896 11.4004 9.53076C11.421 9.51176 11.3608 9.38747 11.2682 9.25367C11.1748 9.12067 11.098 8.85784 11.098 8.66863V8.32663L10.6475 8.49288C10.0728 8.70426 8.84251 8.70663 8.27251 8.49684L7.83234 8.33455L7.84264 8.69238C7.84818 8.89821 7.77297 9.13809 7.66451 9.25842C7.48084 9.46109 7.49034 9.47692 8.02076 9.83317C8.52743 10.1752 8.59472 10.1934 8.99451 10.092C9.28864 10.0185 9.59629 10.0179 9.89068 10.0905V10.0889ZM6.54193 7.99096C6.4588 7.90151 4.19068 7.23572 4.1408 7.28559C4.11705 7.30934 4.5398 7.61334 5.07972 7.96167L6.06139 8.59501L6.33055 8.32267C6.4778 8.17384 6.57359 8.02422 6.54272 7.99017L6.54193 7.99096ZM14.2686 7.69567C14.6431 7.45342 14.9019 7.2563 14.8449 7.2563C14.7222 7.2563 12.5673 7.8928 12.4486 7.96405C12.4034 7.99097 12.4747 8.14534 12.6069 8.30684L12.8476 8.59976L13.2196 8.3678C13.4231 8.23955 13.8957 7.93713 14.2694 7.69488L14.2686 7.69567ZM12.9734 7.2563C14.6438 6.78922 16.0348 6.38388 16.0641 6.35459H2.84089C2.98893 6.50263 8.99926 8.0923 9.42993 8.09784C9.75451 8.1018 11.0243 7.80017 12.9734 7.2563Z" fill="#2D3748"/>
</g>
<defs>
<clipPath id="clip0_1455_24621">
<rect width="19" height="19" fill="white" transform="translate(0 0.520996)"/>
</clipPath>
</defs>
</svg>
