<svg width="19" height="20" viewBox="0 0 19 20" fill="none" xmlns="http://www.w3.org/2000/svg">
<path d="M15.9536 14.863L4.6526 3.56191C5.21997 2.98136 5.86306 2.49976 6.5819 2.11712C7.30126 1.73448 8.07656 1.464 8.90781 1.30566C8.67031 2.61191 8.74288 3.88834 9.12552 5.13496C9.50816 6.38209 10.1679 7.47407 11.1047 8.41087C12.0415 9.34768 13.1335 10.0074 14.3806 10.39C15.6272 10.7727 16.9036 10.8452 18.2099 10.6077C18.0648 11.439 17.7977 12.2143 17.4087 12.9337C17.0192 13.6525 16.5342 14.2956 15.9536 14.863ZM15.3401 18.7619L13.2026 16.6244C12.754 16.7959 12.2956 16.9245 11.8275 17.01C11.3588 17.096 10.8738 17.139 10.3724 17.139C9.26406 17.139 8.22487 16.9279 7.25481 16.5057C6.28528 16.0834 5.4411 15.5129 4.72227 14.7941C4.00291 14.0747 3.43212 13.2303 3.0099 12.2607C2.58767 11.2907 2.37656 10.2515 2.37656 9.14316C2.37656 8.64178 2.41958 8.15675 2.5056 7.68808C2.5911 7.21994 2.71962 6.76157 2.89115 6.31296L0.773438 4.19525L1.90156 3.06712L16.4682 17.6338L15.3401 18.7619Z" fill="#2D3748"/>
</svg>
